<?xml version="1.0" encoding="UTF-8" standalone="no"?>
<!DOCTYPE svg PUBLIC "-//W3C//DTD SVG 1.1//EN" "http://www.w3.org/Graphics/SVG/1.1/DTD/svg11.dtd">
<!-- Generated by graphviz version 2.40.1 (20161225.0304)
 -->
<!-- Title: G Pages: 1 -->
<svg width="1611pt" height="1196pt" viewBox="0.00 0.00 1610.51 1196.00" xmlns="http://www.w3.org/2000/svg" xmlns:xlink="http://www.w3.org/1999/xlink">
<g id="graph0" class="graph" transform="scale(1 1) rotate(0) translate(4 1192)">
<title>G</title>
<polygon fill="#ffffff" stroke="transparent" points="-4,4 -4,-1192 1606.511,-1192 1606.511,4 -4,4"/>
<!-- pacco.cli.entry_point -->
<g id="node1" class="node">
<title>pacco.cli.entry_point</title>
<ellipse fill="#98f5ff" stroke="#98f5ff" cx="1285.9234" cy="-1170" rx="92.619" ry="18"/>
<text text-anchor="middle" x="1285.9234" y="-1165.8" font-family="Times,serif" font-size="14.00" fill="#000000">pacco.cli.entry_point</text>
</g>
<!-- pacco.cli.commands.pacco -->
<g id="node2" class="node">
<title>pacco.cli.commands.pacco</title>
<ellipse fill="#98f5ff" stroke="#98f5ff" cx="1136.9234" cy="-1098" rx="114.6127" ry="18"/>
<text text-anchor="middle" x="1136.9234" y="-1093.8" font-family="Times,serif" font-size="14.00" fill="#000000">pacco.cli.commands.pacco</text>
</g>
<!-- pacco.cli.entry_point&#45;&gt;pacco.cli.commands.pacco -->
<g id="edge1" class="edge">
<title>pacco.cli.entry_point-&gt;pacco.cli.commands.pacco</title>
<path fill="none" stroke="#98f5ff" d="M1251.3653,-1153.3008C1230.679,-1143.3047 1204.1595,-1130.49 1181.8588,-1119.7138"/>
<polygon fill="#98f5ff" stroke="#98f5ff" points="1183.1156,-1116.4339 1172.5889,-1115.2344 1180.07,-1122.7366 1183.1156,-1116.4339"/>
</g>
<!-- pacco.cli.commands.utils.output_stream -->
<g id="node3" class="node">
<title>pacco.cli.commands.utils.output_stream</title>
<ellipse fill="#98f5ff" stroke="#98f5ff" cx="1435.9234" cy="-1098" rx="166.6754" ry="18"/>
<text text-anchor="middle" x="1435.9234" y="-1093.8" font-family="Times,serif" font-size="14.00" fill="#000000">pacco.cli.commands.utils.output_stream</text>
</g>
<!-- pacco.cli.entry_point&#45;&gt;pacco.cli.commands.utils.output_stream -->
<g id="edge2" class="edge">
<title>pacco.cli.entry_point-&gt;pacco.cli.commands.utils.output_stream</title>
<path fill="none" stroke="#98f5ff" d="M1320.7134,-1153.3008C1341.3113,-1143.4138 1367.6542,-1130.7692 1389.9501,-1120.0672"/>
<polygon fill="#98f5ff" stroke="#98f5ff" points="1391.7286,-1123.0959 1399.2292,-1115.6132 1388.6994,-1116.7852 1391.7286,-1123.0959"/>
</g>
<!-- pacco.cli.commands.binary -->
<g id="node4" class="node">
<title>pacco.cli.commands.binary</title>
<ellipse fill="#98f5ff" stroke="#98f5ff" cx="804.9234" cy="-1026" rx="116.9194" ry="18"/>
<text text-anchor="middle" x="804.9234" y="-1021.8" font-family="Times,serif" font-size="14.00" fill="#000000">pacco.cli.commands.binary</text>
</g>
<!-- pacco.cli.commands.pacco&#45;&gt;pacco.cli.commands.binary -->
<g id="edge8" class="edge">
<title>pacco.cli.commands.pacco-&gt;pacco.cli.commands.binary</title>
<path fill="none" stroke="#98f5ff" d="M1069.338,-1083.3429C1015.2344,-1071.6096 939.3015,-1055.1423 882.6797,-1042.8628"/>
<polygon fill="#98f5ff" stroke="#98f5ff" points="883.2131,-1039.3972 872.6985,-1040.6982 881.7295,-1046.2382 883.2131,-1039.3972"/>
</g>
<!-- pacco.cli.commands.utils.command_abstract -->
<g id="node5" class="node">
<title>pacco.cli.commands.utils.command_abstract</title>
<ellipse fill="#98f5ff" stroke="#98f5ff" cx="1242.9234" cy="-954" rx="184.0529" ry="18"/>
<text text-anchor="middle" x="1242.9234" y="-949.8" font-family="Times,serif" font-size="14.00" fill="#000000">pacco.cli.commands.utils.command_abstract</text>
</g>
<!-- pacco.cli.commands.pacco&#45;&gt;pacco.cli.commands.utils.command_abstract -->
<g id="edge11" class="edge">
<title>pacco.cli.commands.pacco-&gt;pacco.cli.commands.utils.command_abstract</title>
<path fill="none" stroke="#98f5ff" d="M1158.3653,-1080.0838C1169.4762,-1070.1514 1182.7993,-1057.171 1192.9234,-1044 1207.9508,-1024.4499 1221.3018,-999.8349 1230.4194,-981.2909"/>
<polygon fill="#98f5ff" stroke="#98f5ff" points="1233.6086,-982.735 1234.7878,-972.206 1227.3,-979.7015 1233.6086,-982.735"/>
</g>
<!-- pacco.cli.commands.registry -->
<g id="node10" class="node">
<title>pacco.cli.commands.registry</title>
<ellipse fill="#98f5ff" stroke="#98f5ff" cx="1061.9234" cy="-1026" rx="121.5709" ry="18"/>
<text text-anchor="middle" x="1061.9234" y="-1021.8" font-family="Times,serif" font-size="14.00" fill="#000000">pacco.cli.commands.registry</text>
</g>
<!-- pacco.cli.commands.pacco&#45;&gt;pacco.cli.commands.registry -->
<g id="edge9" class="edge">
<title>pacco.cli.commands.pacco-&gt;pacco.cli.commands.registry</title>
<path fill="none" stroke="#98f5ff" d="M1118.384,-1080.2022C1109.1892,-1071.3752 1097.9305,-1060.5669 1087.8928,-1050.9307"/>
<polygon fill="#98f5ff" stroke="#98f5ff" points="1090.1471,-1048.243 1080.5093,-1043.8425 1085.2994,-1053.2928 1090.1471,-1048.243"/>
</g>
<!-- pacco.cli.commands.remote -->
<g id="node11" class="node">
<title>pacco.cli.commands.remote</title>
<ellipse fill="#98f5ff" stroke="#98f5ff" cx="1358.9234" cy="-1026" rx="119.2032" ry="18"/>
<text text-anchor="middle" x="1358.9234" y="-1021.8" font-family="Times,serif" font-size="14.00" fill="#000000">pacco.cli.commands.remote</text>
</g>
<!-- pacco.cli.commands.pacco&#45;&gt;pacco.cli.commands.remote -->
<g id="edge10" class="edge">
<title>pacco.cli.commands.pacco-&gt;pacco.cli.commands.remote</title>
<path fill="none" stroke="#98f5ff" d="M1187.0213,-1081.752C1220.1023,-1071.023 1263.6359,-1056.904 1298.6159,-1045.5592"/>
<polygon fill="#98f5ff" stroke="#98f5ff" points="1299.8069,-1048.8524 1308.2394,-1042.438 1297.6474,-1042.1939 1299.8069,-1048.8524"/>
</g>
<!-- pacco.cli.commands.binary&#45;&gt;pacco.cli.commands.utils.command_abstract -->
<g id="edge3" class="edge">
<title>pacco.cli.commands.binary-&gt;pacco.cli.commands.utils.command_abstract</title>
<path fill="none" stroke="#98f5ff" d="M885.0045,-1012.836C956.1157,-1001.1465 1060.5084,-983.986 1138.2218,-971.2112"/>
<polygon fill="#98f5ff" stroke="#98f5ff" points="1139.2227,-974.5937 1148.5226,-969.5179 1138.0872,-967.6864 1139.2227,-974.5937"/>
</g>
<!-- pacco.manager.abstracts.package_binary -->
<g id="node6" class="node">
<title>pacco.manager.interfaces.package_binary</title>
<ellipse fill="#d3d3d3" stroke="#000000" cx="1005.9234" cy="-234" rx="172.8993" ry="18"/>
<text text-anchor="middle" x="1005.9234" y="-229.8" font-family="Times,serif" font-size="14.00" fill="#000000">pacco.manager.interfaces.package_binary</text>
</g>
<!-- pacco.cli.commands.binary&#45;&gt;pacco.manager.abstracts.package_binary -->
<g id="edge4" class="edge">
<title>pacco.cli.commands.binary-&gt;pacco.manager.interfaces.package_binary</title>
<path fill="none" stroke="#98f5ff" d="M796.8645,-1007.7668C785.71,-980.8248 766.9234,-928.5405 766.9234,-882 766.9234,-882 766.9234,-882 766.9234,-594 766.9234,-442.7341 813.7306,-399.5258 915.9234,-288 927.3412,-275.5394 942.2993,-265.0196 956.7338,-256.6699"/>
<polygon fill="#98f5ff" stroke="#98f5ff" points="958.5625,-259.6581 965.6172,-251.7535 955.1729,-253.5335 958.5625,-259.6581"/>
</g>
<!-- pacco.manager.abstracts.remote -->
<g id="node7" class="node">
<title>pacco.manager.interfaces.remote</title>
<ellipse fill="#d3d3d3" stroke="#000000" cx="1232.9234" cy="-666" rx="138.2615" ry="18"/>
<text text-anchor="middle" x="1232.9234" y="-661.8" font-family="Times,serif" font-size="14.00" fill="#000000">pacco.manager.interfaces.remote</text>
</g>
<!-- pacco.cli.commands.binary&#45;&gt;pacco.manager.abstracts.remote -->
<g id="edge5" class="edge">
<title>pacco.cli.commands.binary-&gt;pacco.manager.interfaces.remote</title>
<path fill="none" stroke="#98f5ff" d="M816.7665,-1007.7723C846.5492,-963.4649 929.2774,-849.5394 1027.9234,-792 1084.5352,-758.9788 1117.0959,-793.3887 1170.9234,-756 1183.0296,-747.5909 1203.2793,-716.2362 1217.3279,-692.8864"/>
<polygon fill="#98f5ff" stroke="#98f5ff" points="1220.4595,-694.4677 1222.561,-684.0834 1214.4425,-690.8907 1220.4595,-694.4677"/>
</g>
<!-- pacco.manager.abstracts.package_registry -->
<g id="node8" class="node">
<title>pacco.manager.interfaces.package_registry</title>
<ellipse fill="#d3d3d3" stroke="#000000" cx="1048.9234" cy="-450" rx="177.5503" ry="18"/>
<text text-anchor="middle" x="1048.9234" y="-445.8" font-family="Times,serif" font-size="14.00" fill="#000000">pacco.manager.interfaces.package_registry</text>
</g>
<!-- pacco.cli.commands.binary&#45;&gt;pacco.manager.abstracts.package_registry -->
<g id="edge6" class="edge">
<title>pacco.cli.commands.binary-&gt;pacco.manager.interfaces.package_registry</title>
<path fill="none" stroke="#98f5ff" d="M804.9234,-1007.8146C804.9234,-980.4983 804.9234,-927.25 804.9234,-882 804.9234,-882 804.9234,-882 804.9234,-738 804.9234,-613.9785 938.274,-515.9301 1007.8112,-473.2326"/>
<polygon fill="#98f5ff" stroke="#98f5ff" points="1010.0237,-475.9852 1016.7737,-467.819 1006.4044,-469.9935 1010.0237,-475.9852"/>
</g>
<!-- pacco.manager.utils.cache -->
<g id="node9" class="node">
<title>pacco.manager.utils.cache</title>
<ellipse fill="#d3d3d3" stroke="#000000" cx="961.9234" cy="-162" rx="112.8017" ry="18"/>
<text text-anchor="middle" x="961.9234" y="-157.8" font-family="Times,serif" font-size="14.00" fill="#000000">pacco.manager.utils.cache</text>
</g>
<!-- pacco.cli.commands.binary&#45;&gt;pacco.manager.utils.cache -->
<g id="edge7" class="edge">
<title>pacco.cli.commands.binary-&gt;pacco.manager.utils.cache</title>
<path fill="none" stroke="#98f5ff" d="M788.0565,-1008.0553C765.6663,-982.2804 728.9234,-932.3175 728.9234,-882 728.9234,-882 728.9234,-882 728.9234,-522 728.9234,-382.3871 705.9369,-319.239 799.9234,-216 812.3355,-202.3659 850.9307,-189.2326 887.335,-179.3322"/>
<polygon fill="#98f5ff" stroke="#98f5ff" points="888.2565,-182.7089 897.0218,-176.7575 886.4582,-175.9438 888.2565,-182.7089"/>
</g>
<!-- pacco.manager.remote_manager -->
<g id="node12" class="node">
<title>pacco.manager.remote_manager</title>
<ellipse fill="#d3d3d3" stroke="#000000" cx="1242.9234" cy="-882" rx="136.5222" ry="18"/>
<text text-anchor="middle" x="1242.9234" y="-877.8" font-family="Times,serif" font-size="14.00" fill="#000000">pacco.manager.remote_manager</text>
</g>
<!-- pacco.cli.commands.utils.command_abstract&#45;&gt;pacco.manager.remote_manager -->
<g id="edge17" class="edge">
<title>pacco.cli.commands.utils.command_abstract-&gt;pacco.manager.remote_manager</title>
<path fill="none" stroke="#98f5ff" d="M1242.9234,-935.8314C1242.9234,-928.131 1242.9234,-918.9743 1242.9234,-910.4166"/>
<polygon fill="#98f5ff" stroke="#98f5ff" points="1246.4235,-910.4132 1242.9234,-900.4133 1239.4235,-910.4133 1246.4235,-910.4132"/>
</g>
<!-- pacco.manager.abstracts.package_binary&#45;&gt;pacco.manager.utils.cache -->
<g id="edge36" class="edge">
<title>pacco.manager.interfaces.package_binary-&gt;pacco.manager.utils.cache</title>
<path fill="none" stroke="#000000" d="M994.8203,-215.8314C989.8559,-207.7079 983.9012,-197.9637 978.4306,-189.0118"/>
<polygon fill="#000000" stroke="#000000" points="981.377,-187.121 973.1759,-180.4133 975.404,-190.7712 981.377,-187.121"/>
</g>
<!-- pacco.manager.abstracts.remote&#45;&gt;pacco.manager.abstracts.package_registry -->
<g id="edge42" class="edge">
<title>pacco.manager.interfaces.remote-&gt;pacco.manager.interfaces.package_registry</title>
<path fill="none" stroke="#000000" d="M1165.3553,-650.2869C1126.9049,-640.0967 1083.7245,-626.1274 1069.9234,-612 1035.2911,-576.5491 1038.1547,-514.0104 1043.461,-477.8841"/>
<polygon fill="#000000" stroke="#000000" points="1046.9162,-478.4421 1045.0701,-468.0093 1040.0073,-477.3162 1046.9162,-478.4421"/>
</g>
<!-- pacco.manager.abstracts.registry_factory -->
<g id="node23" class="node">
<title>pacco.manager.interfaces.registry_factory</title>
<ellipse fill="#d3d3d3" stroke="#000000" cx="1251.9234" cy="-594" rx="173.4733" ry="18"/>
<text text-anchor="middle" x="1251.9234" y="-589.8" font-family="Times,serif" font-size="14.00" fill="#000000">pacco.manager.interfaces.registry_factory</text>
</g>
<!-- pacco.manager.abstracts.remote&#45;&gt;pacco.manager.abstracts.registry_factory -->
<g id="edge43" class="edge">
<title>pacco.manager.interfaces.remote-&gt;pacco.manager.interfaces.registry_factory</title>
<path fill="none" stroke="#000000" d="M1237.7179,-647.8314C1239.7722,-640.0463 1242.2194,-630.7729 1244.4989,-622.1347"/>
<polygon fill="#000000" stroke="#000000" points="1247.8968,-622.9753 1247.0643,-612.4133 1241.1285,-621.1892 1247.8968,-622.9753"/>
</g>
<!-- pacco.manager.abstracts.package_registry&#45;&gt;pacco.manager.abstracts.package_binary -->
<g id="edge38" class="edge">
<title>pacco.manager.interfaces.package_registry-&gt;pacco.manager.interfaces.package_binary</title>
<path fill="none" stroke="#000000" d="M972.9074,-433.6172C953.3652,-425.5976 934.5835,-413.6831 922.9234,-396 913.4408,-381.6193 916.6876,-307.7475 927.9234,-288 935.0019,-275.5591 946.2635,-265.3418 958.0523,-257.2721"/>
<polygon fill="#000000" stroke="#000000" points="960.1259,-260.101 966.6773,-251.7746 956.3634,-254.1982 960.1259,-260.101"/>
</g>
<!-- pacco.manager.abstracts.binary_factory -->
<g id="node22" class="node">
<title>pacco.manager.interfaces.binary_factory</title>
<ellipse fill="#d3d3d3" stroke="#000000" cx="1099.9234" cy="-378" rx="168.3219" ry="18"/>
<text text-anchor="middle" x="1099.9234" y="-373.8" font-family="Times,serif" font-size="14.00" fill="#000000">pacco.manager.interfaces.binary_factory</text>
</g>
<!-- pacco.manager.abstracts.package_registry&#45;&gt;pacco.manager.abstracts.binary_factory -->
<g id="edge37" class="edge">
<title>pacco.manager.interfaces.package_registry-&gt;pacco.manager.interfaces.binary_factory</title>
<path fill="none" stroke="#000000" d="M1061.7928,-431.8314C1067.6069,-423.6232 1074.593,-413.7606 1080.988,-404.7323"/>
<polygon fill="#000000" stroke="#000000" points="1083.9565,-406.5966 1086.8806,-396.4133 1078.2443,-402.5505 1083.9565,-406.5966"/>
</g>
<!-- pacco.manager.file_based.utils.clients.local -->
<g id="node19" class="node">
<title>pacco.manager.file_based.utils.clients.local</title>
<ellipse fill="#ee8262" stroke="#ee8262" cx="961.9234" cy="-90" rx="179.3299" ry="18"/>
<text text-anchor="middle" x="961.9234" y="-85.8" font-family="Times,serif" font-size="14.00" fill="#000000">pacco.manager.file_based.utils.clients.local</text>
</g>
<!-- pacco.manager.utils.cache&#45;&gt;pacco.manager.file_based.utils.clients.local -->
<g id="edge46" class="edge">
<title>pacco.manager.utils.cache-&gt;pacco.manager.file_based.utils.clients.local</title>
<path fill="none" stroke="#ee8262" d="M961.9234,-143.8314C961.9234,-136.131 961.9234,-126.9743 961.9234,-118.4166"/>
<polygon fill="#ee8262" stroke="#ee8262" points="965.4235,-118.4132 961.9234,-108.4133 958.4235,-118.4133 965.4235,-118.4132"/>
</g>
<!-- pacco.cli.commands.registry&#45;&gt;pacco.cli.commands.utils.command_abstract -->
<g id="edge12" class="edge">
<title>pacco.cli.commands.registry-&gt;pacco.cli.commands.utils.command_abstract</title>
<path fill="none" stroke="#98f5ff" d="M1104.3598,-1009.1192C1129.7832,-999.006 1162.3355,-986.057 1189.4997,-975.2514"/>
<polygon fill="#98f5ff" stroke="#98f5ff" points="1190.8646,-978.4753 1198.8628,-971.5269 1188.2772,-971.971 1190.8646,-978.4753"/>
</g>
<!-- pacco.cli.commands.registry&#45;&gt;pacco.manager.abstracts.remote -->
<g id="edge13" class="edge">
<title>pacco.cli.commands.registry-&gt;pacco.manager.interfaces.remote</title>
<path fill="none" stroke="#98f5ff" d="M1053.7306,-1007.7506C1035.8523,-964.8522 998.8596,-856.3774 1049.9234,-792 1093.6041,-736.9306 1152.2238,-803.6214 1203.9234,-756 1221.0157,-740.2559 1228.0725,-714.4045 1230.966,-694.4377"/>
<polygon fill="#98f5ff" stroke="#98f5ff" points="1234.462,-694.6763 1232.1567,-684.3353 1227.5101,-693.8568 1234.462,-694.6763"/>
</g>
<!-- pacco.cli.commands.registry&#45;&gt;pacco.manager.abstracts.package_registry -->
<g id="edge14" class="edge">
<title>pacco.cli.commands.registry-&gt;pacco.manager.interfaces.package_registry</title>
<path fill="none" stroke="#98f5ff" d="M1042.8822,-1007.9993C1001.755,-967.6414 905.5448,-864.8905 870.9234,-756 866.0753,-740.7522 866.3262,-735.3254 870.9234,-720 901.283,-618.7906 983.2056,-520.4677 1024.4693,-475.4865"/>
<polygon fill="#98f5ff" stroke="#98f5ff" points="1027.2058,-477.6831 1031.4423,-467.9721 1022.0746,-472.9216 1027.2058,-477.6831"/>
</g>
<!-- pacco.cli.commands.remote&#45;&gt;pacco.cli.commands.utils.command_abstract -->
<g id="edge15" class="edge">
<title>pacco.cli.commands.remote-&gt;pacco.cli.commands.utils.command_abstract</title>
<path fill="none" stroke="#98f5ff" d="M1330.5466,-1008.3868C1315.4928,-999.0431 1296.7996,-987.4404 1280.5503,-977.3547"/>
<polygon fill="#98f5ff" stroke="#98f5ff" points="1282.1552,-974.2314 1271.813,-971.9315 1278.4636,-980.1789 1282.1552,-974.2314"/>
</g>
<!-- pacco.cli.commands.remote&#45;&gt;pacco.manager.abstracts.remote -->
<g id="edge16" class="edge">
<title>pacco.cli.commands.remote-&gt;pacco.manager.interfaces.remote</title>
<path fill="none" stroke="#98f5ff" d="M1392.9886,-1008.5516C1407.9422,-999.4199 1424.6278,-986.9995 1435.9234,-972 1461.3734,-938.2047 1466.9234,-924.3063 1466.9234,-882 1466.9234,-882 1466.9234,-882 1466.9234,-810 1466.9234,-739.1882 1388.2384,-702.0795 1322.1241,-683.3977"/>
<polygon fill="#98f5ff" stroke="#98f5ff" points="1323.0396,-680.0196 1312.4716,-680.7732 1321.203,-686.7744 1323.0396,-680.0196"/>
</g>
<!-- pacco.manager.remote_manager&#45;&gt;pacco.manager.abstracts.remote -->
<g id="edge18" class="edge">
<title>pacco.manager.remote_manager-&gt;pacco.manager.interfaces.remote</title>
<path fill="none" stroke="#000000" d="M1317.818,-866.8267C1356.6995,-857.2689 1398.4495,-843.7689 1409.9234,-828 1419.3371,-815.0624 1417.2561,-806.2208 1409.9234,-792 1384.2091,-742.1308 1328.6181,-707.6744 1286.5521,-687.5564"/>
<polygon fill="#000000" stroke="#000000" points="1287.8023,-684.278 1277.2586,-683.2375 1284.8521,-690.6259 1287.8023,-684.278"/>
</g>
<!-- pacco.manager.abstracts.remote_factory -->
<g id="node13" class="node">
<title>pacco.manager.interfaces.remote_factory</title>
<ellipse fill="#d3d3d3" stroke="#000000" cx="1229.9234" cy="-810" rx="170.6056" ry="18"/>
<text text-anchor="middle" x="1229.9234" y="-805.8" font-family="Times,serif" font-size="14.00" fill="#000000">pacco.manager.interfaces.remote_factory</text>
</g>
<!-- pacco.manager.remote_manager&#45;&gt;pacco.manager.abstracts.remote_factory -->
<g id="edge19" class="edge">
<title>pacco.manager.remote_manager-&gt;pacco.manager.interfaces.remote_factory</title>
<path fill="none" stroke="#000000" d="M1239.6429,-863.8314C1238.2526,-856.131 1236.5993,-846.9743 1235.0541,-838.4166"/>
<polygon fill="#000000" stroke="#000000" points="1238.4692,-837.6322 1233.248,-828.4133 1231.5806,-838.8761 1238.4692,-837.6322"/>
</g>
<!-- pacco.manager.abstracts.remote_factory&#45;&gt;pacco.manager.abstracts.remote -->
<g id="edge45" class="edge">
<title>pacco.manager.interfaces.remote_factory-&gt;pacco.manager.interfaces.remote</title>
<path fill="none" stroke="#000000" d="M1235.0425,-791.6727C1237.6754,-781.2978 1240.603,-768.0284 1241.9234,-756 1244.1795,-735.4471 1241.7338,-712.2273 1238.8262,-694.5212"/>
<polygon fill="#000000" stroke="#000000" points="1242.2008,-693.5094 1236.994,-684.2824 1235.3103,-694.7425 1242.2008,-693.5094"/>
</g>
<!-- pacco.manager.file_based.remote -->
<g id="node17" class="node">
<title>pacco.manager.file_based.remote</title>
<ellipse fill="#d3d3d3" stroke="#000000" cx="1020.9234" cy="-738" rx="140.5723" ry="18"/>
<text text-anchor="middle" x="1020.9234" y="-733.8" font-family="Times,serif" font-size="14.00" fill="#000000">pacco.manager.file_based.remote</text>
</g>
<!-- pacco.manager.abstracts.remote_factory&#45;&gt;pacco.manager.file_based.remote -->
<g id="edge44" class="edge">
<title>pacco.manager.interfaces.remote_factory-&gt;pacco.manager.file_based.remote</title>
<path fill="none" stroke="#000000" d="M1179.8627,-792.7542C1149.7662,-782.386 1111.3113,-769.1384 1079.7659,-758.2711"/>
<polygon fill="#000000" stroke="#000000" points="1080.8093,-754.9288 1070.2146,-754.9807 1078.5293,-761.547 1080.8093,-754.9288"/>
</g>
<!-- pacco.manager.file_based.package_binary -->
<g id="node14" class="node">
<title>pacco.manager.file_based.package_binary</title>
<ellipse fill="#d3d3d3" stroke="#000000" cx="1121.9234" cy="-306" rx="174.7101" ry="18"/>
<text text-anchor="middle" x="1121.9234" y="-301.8" font-family="Times,serif" font-size="14.00" fill="#000000">pacco.manager.file_based.package_binary</text>
</g>
<!-- pacco.manager.file_based.package_binary&#45;&gt;pacco.manager.abstracts.package_binary -->
<g id="edge21" class="edge">
<title>pacco.manager.file_based.package_binary-&gt;pacco.manager.interfaces.package_binary</title>
<path fill="none" stroke="#000000" d="M1093.2492,-288.2022C1078.1913,-278.856 1059.5547,-267.2884 1043.3704,-257.243"/>
<polygon fill="#000000" stroke="#000000" points="1045.0119,-254.1425 1034.6697,-251.8425 1041.3203,-260.09 1045.0119,-254.1425"/>
</g>
<!-- pacco.manager.file_based.utils.clients.abstract -->
<g id="node15" class="node">
<title>pacco.manager.file_based.utils.clients.abstract</title>
<ellipse fill="#ee8262" stroke="#ee8262" cx="1187.9234" cy="-18" rx="190.344" ry="18"/>
<text text-anchor="middle" x="1187.9234" y="-13.8" font-family="Times,serif" font-size="14.00" fill="#000000">pacco.manager.file_based.utils.clients.abstract</text>
</g>
<!-- pacco.manager.file_based.package_binary&#45;&gt;pacco.manager.file_based.utils.clients.abstract -->
<g id="edge20" class="edge">
<title>pacco.manager.file_based.package_binary-&gt;pacco.manager.file_based.utils.clients.abstract</title>
<path fill="none" stroke="#ee8262" d="M1154.3385,-288.1871C1167.3023,-279.1931 1180.8227,-266.9842 1187.9234,-252 1220.2027,-183.8828 1205.6904,-91.5814 1195.2578,-45.9365"/>
<polygon fill="#ee8262" stroke="#ee8262" points="1198.648,-45.0645 1192.9182,-36.1528 1191.84,-46.6926 1198.648,-45.0645"/>
</g>
<!-- pacco.manager.file_based.package_registry -->
<g id="node16" class="node">
<title>pacco.manager.file_based.package_registry</title>
<ellipse fill="#d3d3d3" stroke="#000000" cx="1256.9234" cy="-522" rx="179.8613" ry="18"/>
<text text-anchor="middle" x="1256.9234" y="-517.8" font-family="Times,serif" font-size="14.00" fill="#000000">pacco.manager.file_based.package_registry</text>
</g>
<!-- pacco.manager.file_based.package_registry&#45;&gt;pacco.manager.abstracts.package_registry -->
<g id="edge23" class="edge">
<title>pacco.manager.file_based.package_registry-&gt;pacco.manager.interfaces.package_registry</title>
<path fill="none" stroke="#000000" d="M1206.8375,-504.6626C1177.3337,-494.4497 1139.8284,-481.4671 1108.7728,-470.7171"/>
<polygon fill="#000000" stroke="#000000" points="1109.5295,-467.2754 1098.9347,-467.3116 1107.2397,-473.8903 1109.5295,-467.2754"/>
</g>
<!-- pacco.manager.file_based.package_registry&#45;&gt;pacco.manager.file_based.utils.clients.abstract -->
<g id="edge22" class="edge">
<title>pacco.manager.file_based.package_registry-&gt;pacco.manager.file_based.utils.clients.abstract</title>
<path fill="none" stroke="#ee8262" d="M1282.313,-503.9792C1313.6722,-479.3983 1362.9234,-432.1699 1362.9234,-378 1362.9234,-378 1362.9234,-378 1362.9234,-162 1362.9234,-101.2544 1299.2731,-61.4036 1248.7461,-39.339"/>
<polygon fill="#ee8262" stroke="#ee8262" points="1250.0564,-36.0931 1239.4826,-35.425 1247.3319,-42.5412 1250.0564,-36.0931"/>
</g>
<!-- pacco.manager.file_based.remote&#45;&gt;pacco.manager.abstracts.remote -->
<g id="edge26" class="edge">
<title>pacco.manager.file_based.remote-&gt;pacco.manager.interfaces.remote</title>
<path fill="none" stroke="#000000" d="M1070.6279,-721.1192C1101.3503,-710.6852 1140.9607,-697.2326 1173.3583,-686.2296"/>
<polygon fill="#000000" stroke="#000000" points="1174.8201,-689.4296 1183.1633,-682.8996 1172.5689,-682.8014 1174.8201,-689.4296"/>
</g>
<!-- pacco.manager.file_based.remote&#45;&gt;pacco.manager.file_based.utils.clients.abstract -->
<g id="edge25" class="edge">
<title>pacco.manager.file_based.remote-&gt;pacco.manager.file_based.utils.clients.abstract</title>
<path fill="none" stroke="#ee8262" d="M1000.2124,-720.0643C946.1493,-671.1338 804.9234,-528.8759 804.9234,-378 804.9234,-378 804.9234,-378 804.9234,-306 804.9234,-265.1184 794.0153,-243.8714 823.9234,-216 909.2677,-136.4674 980.6222,-234.2029 1083.9234,-180 1136.8999,-152.2028 1166.639,-84.0727 1179.7357,-45.6049"/>
<polygon fill="#ee8262" stroke="#ee8262" points="1183.0778,-46.6452 1182.8528,-36.0527 1176.4232,-44.4736 1183.0778,-46.6452"/>
</g>
<!-- pacco.manager.file_based.utils.clients.client_factory -->
<g id="node18" class="node">
<title>pacco.manager.file_based.utils.clients.client_factory</title>
<ellipse fill="#ee8262" stroke="#ee8262" cx="595.9234" cy="-162" rx="214.0413" ry="18"/>
<text text-anchor="middle" x="595.9234" y="-157.8" font-family="Times,serif" font-size="14.00" fill="#000000">pacco.manager.file_based.utils.clients.client_factory</text>
</g>
<!-- pacco.manager.file_based.remote&#45;&gt;pacco.manager.file_based.utils.clients.client_factory -->
<g id="edge24" class="edge">
<title>pacco.manager.file_based.remote-&gt;pacco.manager.file_based.utils.clients.client_factory</title>
<path fill="none" stroke="#ee8262" d="M942.9715,-722.8844C916.5806,-714.7792 888.3869,-702.4939 866.9234,-684 702.6269,-542.4354 624.4126,-276.4642 602.5331,-189.9577"/>
<polygon fill="#ee8262" stroke="#ee8262" points="605.8908,-188.9559 600.0873,-180.092 599.0965,-190.6404 605.8908,-188.9559"/>
</g>
<!-- pacco.manager.file_based.utils.clients.client_factory&#45;&gt;pacco.manager.file_based.utils.clients.local -->
<g id="edge27" class="edge">
<title>pacco.manager.file_based.utils.clients.client_factory-&gt;pacco.manager.file_based.utils.clients.local</title>
<path fill="none" stroke="#ee8262" d="M680.3507,-145.3913C737.1271,-134.2222 811.9471,-119.5035 870.1894,-108.046"/>
<polygon fill="#ee8262" stroke="#ee8262" points="870.9881,-111.4561 880.1244,-106.0916 869.6369,-104.5877 870.9881,-111.4561"/>
</g>
<!-- pacco.manager.file_based.utils.clients.nexus -->
<g id="node20" class="node">
<title>pacco.manager.file_based.utils.clients.nexus</title>
<ellipse fill="#ee8262" stroke="#ee8262" cx="182.9234" cy="-90" rx="182.8468" ry="18"/>
<text text-anchor="middle" x="182.9234" y="-85.8" font-family="Times,serif" font-size="14.00" fill="#000000">pacco.manager.file_based.utils.clients.nexus</text>
</g>
<!-- pacco.manager.file_based.utils.clients.client_factory&#45;&gt;pacco.manager.file_based.utils.clients.nexus -->
<g id="edge28" class="edge">
<title>pacco.manager.file_based.utils.clients.client_factory-&gt;pacco.manager.file_based.utils.clients.nexus</title>
<path fill="none" stroke="#ee8262" d="M502.7231,-145.752C437.3243,-134.3508 349.9664,-119.1213 283.0802,-107.4608"/>
<polygon fill="#ee8262" stroke="#ee8262" points="283.3996,-103.9637 272.9471,-105.6942 282.1973,-110.8597 283.3996,-103.9637"/>
</g>
<!-- pacco.manager.file_based.utils.clients.webdav -->
<g id="node21" class="node">
<title>pacco.manager.file_based.utils.clients.webdav</title>
<ellipse fill="#ee8262" stroke="#ee8262" cx="573.9234" cy="-90" rx="190.3517" ry="18"/>
<text text-anchor="middle" x="573.9234" y="-85.8" font-family="Times,serif" font-size="14.00" fill="#000000">pacco.manager.file_based.utils.clients.webdav</text>
</g>
<!-- pacco.manager.file_based.utils.clients.client_factory&#45;&gt;pacco.manager.file_based.utils.clients.webdav -->
<g id="edge29" class="edge">
<title>pacco.manager.file_based.utils.clients.client_factory-&gt;pacco.manager.file_based.utils.clients.webdav</title>
<path fill="none" stroke="#ee8262" d="M590.3718,-143.8314C587.9931,-136.0463 585.1595,-126.7729 582.5201,-118.1347"/>
<polygon fill="#ee8262" stroke="#ee8262" points="585.8191,-116.954 579.5496,-108.4133 579.1247,-118.9996 585.8191,-116.954"/>
</g>
<!-- pacco.manager.file_based.utils.clients.local&#45;&gt;pacco.manager.file_based.utils.clients.abstract -->
<g id="edge30" class="edge">
<title>pacco.manager.file_based.utils.clients.local-&gt;pacco.manager.file_based.utils.clients.abstract</title>
<path fill="none" stroke="#ee8262" d="M1016.056,-72.7542C1048.3842,-62.4549 1089.631,-49.3144 1123.6136,-38.4881"/>
<polygon fill="#ee8262" stroke="#ee8262" points="1124.9835,-41.7251 1133.4492,-35.3546 1122.8585,-35.0553 1124.9835,-41.7251"/>
</g>
<!-- pacco.manager.file_based.utils.clients.nexus&#45;&gt;pacco.manager.file_based.utils.clients.abstract -->
<g id="edge31" class="edge">
<title>pacco.manager.file_based.utils.clients.nexus-&gt;pacco.manager.file_based.utils.clients.abstract</title>
<path fill="none" stroke="#ee8262" d="M313.0142,-77.3223C333.7153,-75.4438 354.8997,-73.6033 374.9234,-72 595.9055,-54.3059 851.0108,-38.0384 1015.6431,-28.082"/>
<polygon fill="#ee8262" stroke="#ee8262" points="1016.0929,-31.5613 1025.8638,-27.4649 1015.6711,-24.574 1016.0929,-31.5613"/>
</g>
<!-- pacco.manager.file_based.utils.clients.webdav&#45;&gt;pacco.manager.file_based.utils.clients.abstract -->
<g id="edge32" class="edge">
<title>pacco.manager.file_based.utils.clients.webdav-&gt;pacco.manager.file_based.utils.clients.abstract</title>
<path fill="none" stroke="#ee8262" d="M693.7663,-75.9468C798.6794,-63.6442 950.7473,-45.8122 1058.4301,-33.1849"/>
<polygon fill="#ee8262" stroke="#ee8262" points="1058.8584,-36.6587 1068.3827,-32.0178 1058.0431,-29.7064 1058.8584,-36.6587"/>
</g>
<!-- pacco.manager.abstracts.binary_factory&#45;&gt;pacco.manager.abstracts.package_binary -->
<g id="edge34" class="edge">
<title>pacco.manager.interfaces.binary_factory-&gt;pacco.manager.interfaces.package_binary</title>
<path fill="none" stroke="#000000" d="M1024.5871,-361.8592C987.6352,-352.2584 948.7574,-339.0315 937.9234,-324 928.568,-311.0201 930.9664,-302.4084 937.9234,-288 943.6645,-276.1097 953.4369,-266.0346 963.81,-257.9244"/>
<polygon fill="#000000" stroke="#000000" points="966.1526,-260.549 972.1924,-251.8443 962.0426,-254.8826 966.1526,-260.549"/>
</g>
<!-- pacco.manager.abstracts.binary_factory&#45;&gt;pacco.manager.file_based.package_binary -->
<g id="edge33" class="edge">
<title>pacco.manager.interfaces.binary_factory-&gt;pacco.manager.file_based.package_binary</title>
<path fill="none" stroke="#000000" d="M1105.4749,-359.8314C1107.8536,-352.0463 1110.6872,-342.7729 1113.3266,-334.1347"/>
<polygon fill="#000000" stroke="#000000" points="1116.7221,-334.9996 1116.2971,-324.4133 1110.0276,-332.954 1116.7221,-334.9996"/>
</g>
<!-- pacco.manager.abstracts.binary_factory&#45;&gt;pacco.manager.file_based.utils.clients.abstract -->
<g id="edge35" class="edge">
<title>pacco.manager.interfaces.binary_factory-&gt;pacco.manager.file_based.utils.clients.abstract</title>
<path fill="none" stroke="#ee8262" d="M1194.5795,-363.0825C1240.8908,-353.89 1290.047,-340.6625 1305.9234,-324 1334.1244,-294.4025 1324.9234,-274.8816 1324.9234,-234 1324.9234,-234 1324.9234,-234 1324.9234,-162 1324.9234,-107.3028 1272.3987,-65.1327 1232.3945,-40.947"/>
<polygon fill="#ee8262" stroke="#ee8262" points="1233.9582,-37.8067 1223.5609,-35.7704 1230.419,-43.8461 1233.9582,-37.8067"/>
</g>
<!-- pacco.manager.abstracts.registry_factory&#45;&gt;pacco.manager.abstracts.package_registry -->
<g id="edge40" class="edge">
<title>pacco.manager.interfaces.registry_factory-&gt;pacco.manager.interfaces.package_registry</title>
<path fill="none" stroke="#000000" d="M1168.2901,-578.1619C1126.6104,-568.6096 1082.1126,-555.3324 1067.9234,-540 1052.7312,-523.5839 1048.4755,-498.1904 1047.7367,-478.5569"/>
<polygon fill="#000000" stroke="#000000" points="1051.2345,-478.3023 1047.6409,-468.3356 1044.2349,-478.3679 1051.2345,-478.3023"/>
</g>
<!-- pacco.manager.abstracts.registry_factory&#45;&gt;pacco.manager.file_based.utils.clients.abstract -->
<g id="edge41" class="edge">
<title>pacco.manager.interfaces.registry_factory-&gt;pacco.manager.file_based.utils.clients.abstract</title>
<path fill="none" stroke="#ee8262" d="M1340.849,-578.5109C1384.5529,-569.1279 1431.0002,-555.901 1445.9234,-540 1473.9,-510.1903 1464.9234,-490.8816 1464.9234,-450 1464.9234,-450 1464.9234,-450 1464.9234,-162 1464.9234,-88.2129 1386.5882,-52.181 1313.2333,-34.6157"/>
<polygon fill="#ee8262" stroke="#ee8262" points="1313.9197,-31.1823 1303.3905,-32.3597 1312.3558,-38.0054 1313.9197,-31.1823"/>
</g>
<!-- pacco.manager.abstracts.registry_factory&#45;&gt;pacco.manager.file_based.package_registry -->
<g id="edge39" class="edge">
<title>pacco.manager.interfaces.registry_factory-&gt;pacco.manager.file_based.package_registry</title>
<path fill="none" stroke="#000000" d="M1253.1851,-575.8314C1253.7198,-568.131 1254.3557,-558.9743 1254.95,-550.4166"/>
<polygon fill="#000000" stroke="#000000" points="1258.4434,-550.6317 1255.6447,-540.4133 1251.4602,-550.1467 1258.4434,-550.6317"/>
</g>
</g>
</svg>