<?xml version="1.0" encoding="UTF-8" standalone="no"?>
<!DOCTYPE svg PUBLIC "-//W3C//DTD SVG 1.1//EN" "http://www.w3.org/Graphics/SVG/1.1/DTD/svg11.dtd">
<!-- Generated by graphviz version 2.40.1 (20161225.0304)
 -->
<!-- Title: G Pages: 1 -->
<svg width="1332pt" height="1196pt" viewBox="0.00 0.00 1331.75 1196.00" xmlns="http://www.w3.org/2000/svg" xmlns:xlink="http://www.w3.org/1999/xlink">
<g id="graph0" class="graph" transform="scale(1 1) rotate(0) translate(4 1192)">
<title>G</title>
<polygon fill="#ffffff" stroke="transparent" points="-4,4 -4,-1192 1327.7491,-1192 1327.7491,4 -4,4"/>
<!-- pacco.cli.entry_point -->
<g id="node1" class="node">
<title>pacco.cli.entry_point</title>
<ellipse fill="#98f5ff" stroke="#98f5ff" cx="937.3342" cy="-1170" rx="92.619" ry="18"/>
<text text-anchor="middle" x="937.3342" y="-1165.8" font-family="Times,serif" font-size="14.00" fill="#000000">pacco.cli.entry_point</text>
</g>
<!-- pacco.cli.commands.pacco -->
<g id="node2" class="node">
<title>pacco.cli.commands.pacco</title>
<ellipse fill="#98f5ff" stroke="#98f5ff" cx="788.3342" cy="-1098" rx="114.6127" ry="18"/>
<text text-anchor="middle" x="788.3342" y="-1093.8" font-family="Times,serif" font-size="14.00" fill="#000000">pacco.cli.commands.pacco</text>
</g>
<!-- pacco.cli.entry_point&#45;&gt;pacco.cli.commands.pacco -->
<g id="edge1" class="edge">
<title>pacco.cli.entry_point-&gt;pacco.cli.commands.pacco</title>
<path fill="none" stroke="#98f5ff" d="M902.7761,-1153.3008C882.0898,-1143.3047 855.5703,-1130.49 833.2696,-1119.7138"/>
<polygon fill="#98f5ff" stroke="#98f5ff" points="834.5264,-1116.4339 823.9997,-1115.2344 831.4808,-1122.7366 834.5264,-1116.4339"/>
</g>
<!-- pacco.cli.commands.utils.output_stream -->
<g id="node3" class="node">
<title>pacco.cli.commands.utils.output_stream</title>
<ellipse fill="#98f5ff" stroke="#98f5ff" cx="1087.3342" cy="-1098" rx="166.6754" ry="18"/>
<text text-anchor="middle" x="1087.3342" y="-1093.8" font-family="Times,serif" font-size="14.00" fill="#000000">pacco.cli.commands.utils.output_stream</text>
</g>
<!-- pacco.cli.entry_point&#45;&gt;pacco.cli.commands.utils.output_stream -->
<g id="edge2" class="edge">
<title>pacco.cli.entry_point-&gt;pacco.cli.commands.utils.output_stream</title>
<path fill="none" stroke="#98f5ff" d="M972.1242,-1153.3008C992.7222,-1143.4138 1019.065,-1130.7692 1041.361,-1120.0672"/>
<polygon fill="#98f5ff" stroke="#98f5ff" points="1043.1394,-1123.0959 1050.6401,-1115.6132 1040.1102,-1116.7852 1043.1394,-1123.0959"/>
</g>
<!-- pacco.cli.commands.binary -->
<g id="node4" class="node">
<title>pacco.cli.commands.binary</title>
<ellipse fill="#98f5ff" stroke="#98f5ff" cx="1007.3342" cy="-1026" rx="116.9194" ry="18"/>
<text text-anchor="middle" x="1007.3342" y="-1021.8" font-family="Times,serif" font-size="14.00" fill="#000000">pacco.cli.commands.binary</text>
</g>
<!-- pacco.cli.commands.pacco&#45;&gt;pacco.cli.commands.binary -->
<g id="edge8" class="edge">
<title>pacco.cli.commands.pacco-&gt;pacco.cli.commands.binary</title>
<path fill="none" stroke="#98f5ff" d="M837.7551,-1081.752C870.5044,-1070.9851 913.6381,-1056.8042 948.2071,-1045.439"/>
<polygon fill="#98f5ff" stroke="#98f5ff" points="949.3079,-1048.7615 957.7145,-1042.3133 947.1216,-1042.1117 949.3079,-1048.7615"/>
</g>
<!-- pacco.cli.commands.utils.command_abstract -->
<g id="node5" class="node">
<title>pacco.cli.commands.utils.command_abstract</title>
<ellipse fill="#98f5ff" stroke="#98f5ff" cx="750.3342" cy="-954" rx="184.0529" ry="18"/>
<text text-anchor="middle" x="750.3342" y="-949.8" font-family="Times,serif" font-size="14.00" fill="#000000">pacco.cli.commands.utils.command_abstract</text>
</g>
<!-- pacco.cli.commands.pacco&#45;&gt;pacco.cli.commands.utils.command_abstract -->
<g id="edge11" class="edge">
<title>pacco.cli.commands.pacco-&gt;pacco.cli.commands.utils.command_abstract</title>
<path fill="none" stroke="#98f5ff" d="M814.0126,-1080.2969C825.2676,-1070.9571 837.2764,-1058.437 843.3342,-1044 849.5249,-1029.2462 851.3171,-1021.8663 843.3342,-1008 835.6164,-994.5943 823.1532,-984.2097 809.8245,-976.2949"/>
<polygon fill="#98f5ff" stroke="#98f5ff" points="811.4325,-973.185 800.9818,-971.4435 808.0655,-979.3221 811.4325,-973.185"/>
</g>
<!-- pacco.cli.commands.registry -->
<g id="node10" class="node">
<title>pacco.cli.commands.registry</title>
<ellipse fill="#98f5ff" stroke="#98f5ff" cx="456.3342" cy="-1026" rx="121.5709" ry="18"/>
<text text-anchor="middle" x="456.3342" y="-1021.8" font-family="Times,serif" font-size="14.00" fill="#000000">pacco.cli.commands.registry</text>
</g>
<!-- pacco.cli.commands.pacco&#45;&gt;pacco.cli.commands.registry -->
<g id="edge9" class="edge">
<title>pacco.cli.commands.pacco-&gt;pacco.cli.commands.registry</title>
<path fill="none" stroke="#98f5ff" d="M720.7489,-1083.3429C666.9136,-1071.6678 591.4649,-1055.3054 534.9343,-1043.0458"/>
<polygon fill="#98f5ff" stroke="#98f5ff" points="535.4797,-1039.5828 524.9651,-1040.8838 533.9961,-1046.4238 535.4797,-1039.5828"/>
</g>
<!-- pacco.cli.commands.remote -->
<g id="node11" class="node">
<title>pacco.cli.commands.remote</title>
<ellipse fill="#98f5ff" stroke="#98f5ff" cx="715.3342" cy="-1026" rx="119.2032" ry="18"/>
<text text-anchor="middle" x="715.3342" y="-1021.8" font-family="Times,serif" font-size="14.00" fill="#000000">pacco.cli.commands.remote</text>
</g>
<!-- pacco.cli.commands.pacco&#45;&gt;pacco.cli.commands.remote -->
<g id="edge10" class="edge">
<title>pacco.cli.commands.pacco-&gt;pacco.cli.commands.remote</title>
<path fill="none" stroke="#98f5ff" d="M770.2892,-1080.2022C761.3396,-1071.3752 750.3812,-1060.5669 740.6111,-1050.9307"/>
<polygon fill="#98f5ff" stroke="#98f5ff" points="743.002,-1048.3728 733.4245,-1043.8425 738.0865,-1053.3566 743.002,-1048.3728"/>
</g>
<!-- pacco.cli.commands.binary&#45;&gt;pacco.cli.commands.utils.command_abstract -->
<g id="edge3" class="edge">
<title>pacco.cli.commands.binary-&gt;pacco.cli.commands.utils.command_abstract</title>
<path fill="none" stroke="#98f5ff" d="M950.9344,-1010.1993C912.6328,-999.4689 861.6953,-985.1984 820.7343,-973.723"/>
<polygon fill="#98f5ff" stroke="#98f5ff" points="821.6605,-970.3478 811.087,-971.0202 819.772,-977.0882 821.6605,-970.3478"/>
</g>
<!-- pacco.manager.abstracts.package_binary -->
<g id="node6" class="node">
<title>pacco.manager.abstracts.package_binary</title>
<ellipse fill="#d3d3d3" stroke="#000000" cx="598.3342" cy="-234" rx="168.9073" ry="18"/>
<text text-anchor="middle" x="598.3342" y="-229.8" font-family="Times,serif" font-size="14.00" fill="#000000">pacco.manager.abstracts.package_binary</text>
</g>
<!-- pacco.cli.commands.binary&#45;&gt;pacco.manager.abstracts.package_binary -->
<g id="edge4" class="edge">
<title>pacco.cli.commands.binary-&gt;pacco.manager.abstracts.package_binary</title>
<path fill="none" stroke="#98f5ff" d="M1021.6552,-1008.1146C1041.0663,-982.0154 1073.3342,-931.2264 1073.3342,-882 1073.3342,-882 1073.3342,-882 1073.3342,-450 1073.3342,-364.2719 813.7082,-287.2418 678.345,-252.906"/>
<polygon fill="#98f5ff" stroke="#98f5ff" points="678.9739,-249.4552 668.4221,-250.4089 677.2656,-256.2435 678.9739,-249.4552"/>
</g>
<!-- pacco.manager.abstracts.remote -->
<g id="node7" class="node">
<title>pacco.manager.abstracts.remote</title>
<ellipse fill="#d3d3d3" stroke="#000000" cx="619.3342" cy="-666" rx="134.7697" ry="18"/>
<text text-anchor="middle" x="619.3342" y="-661.8" font-family="Times,serif" font-size="14.00" fill="#000000">pacco.manager.abstracts.remote</text>
</g>
<!-- pacco.cli.commands.binary&#45;&gt;pacco.manager.abstracts.remote -->
<g id="edge5" class="edge">
<title>pacco.cli.commands.binary-&gt;pacco.manager.abstracts.remote</title>
<path fill="none" stroke="#98f5ff" d="M1000.7922,-1007.6228C997.1985,-997.2323 992.7842,-983.964 989.3342,-972 966.5157,-892.8689 1006.4799,-847.169 945.3342,-792 858.3933,-713.5571 784.6987,-816.3238 684.3342,-756 671.4437,-748.2522 650.1135,-716.5036 635.4241,-692.8963"/>
<polygon fill="#98f5ff" stroke="#98f5ff" points="638.3682,-691.002 630.1509,-684.3142 632.4041,-694.6667 638.3682,-691.002"/>
</g>
<!-- pacco.manager.abstracts.package_registry -->
<g id="node8" class="node">
<title>pacco.manager.abstracts.package_registry</title>
<ellipse fill="#d3d3d3" stroke="#000000" cx="456.3342" cy="-450" rx="173.5587" ry="18"/>
<text text-anchor="middle" x="456.3342" y="-445.8" font-family="Times,serif" font-size="14.00" fill="#000000">pacco.manager.abstracts.package_registry</text>
</g>
<!-- pacco.cli.commands.binary&#45;&gt;pacco.manager.abstracts.package_registry -->
<g id="edge6" class="edge">
<title>pacco.cli.commands.binary-&gt;pacco.manager.abstracts.package_registry</title>
<path fill="none" stroke="#98f5ff" d="M1006.5054,-1007.8191C1005.3338,-980.5085 1003.3342,-927.2675 1003.3342,-882 1003.3342,-882 1003.3342,-882 1003.3342,-810 1003.3342,-769.1184 1009.1752,-752.4689 984.3342,-720 872.3716,-573.6575 658.9017,-499.9713 540.5715,-468.8768"/>
<polygon fill="#98f5ff" stroke="#98f5ff" points="541.3796,-465.4707 530.8217,-466.3547 539.6265,-472.2476 541.3796,-465.4707"/>
</g>
<!-- pacco.manager.utils.cache -->
<g id="node9" class="node">
<title>pacco.manager.utils.cache</title>
<ellipse fill="#d3d3d3" stroke="#000000" cx="1105.3342" cy="-162" rx="112.8017" ry="18"/>
<text text-anchor="middle" x="1105.3342" y="-157.8" font-family="Times,serif" font-size="14.00" fill="#000000">pacco.manager.utils.cache</text>
</g>
<!-- pacco.cli.commands.binary&#45;&gt;pacco.manager.utils.cache -->
<g id="edge7" class="edge">
<title>pacco.cli.commands.binary-&gt;pacco.manager.utils.cache</title>
<path fill="none" stroke="#98f5ff" d="M1031.7176,-1008.2931C1062.4568,-983.7135 1111.3342,-936.1213 1111.3342,-882 1111.3342,-882 1111.3342,-882 1111.3342,-306 1111.3342,-265.8412 1108.9759,-219.4372 1107.2163,-190.4031"/>
<polygon fill="#98f5ff" stroke="#98f5ff" points="1110.6941,-189.9376 1106.5774,-180.1753 1103.7077,-190.3741 1110.6941,-189.9376"/>
</g>
<!-- pacco.manager.remote_manager -->
<g id="node12" class="node">
<title>pacco.manager.remote_manager</title>
<ellipse fill="#d3d3d3" stroke="#000000" cx="750.3342" cy="-882" rx="136.5222" ry="18"/>
<text text-anchor="middle" x="750.3342" y="-877.8" font-family="Times,serif" font-size="14.00" fill="#000000">pacco.manager.remote_manager</text>
</g>
<!-- pacco.cli.commands.utils.command_abstract&#45;&gt;pacco.manager.remote_manager -->
<g id="edge17" class="edge">
<title>pacco.cli.commands.utils.command_abstract-&gt;pacco.manager.remote_manager</title>
<path fill="none" stroke="#98f5ff" d="M750.3342,-935.8314C750.3342,-928.131 750.3342,-918.9743 750.3342,-910.4166"/>
<polygon fill="#98f5ff" stroke="#98f5ff" points="753.8343,-910.4132 750.3342,-900.4133 746.8343,-910.4133 753.8343,-910.4132"/>
</g>
<!-- pacco.manager.abstracts.package_binary&#45;&gt;pacco.manager.utils.cache -->
<g id="edge23" class="edge">
<title>pacco.manager.abstracts.package_binary-&gt;pacco.manager.utils.cache</title>
<path fill="none" stroke="#000000" d="M700.0188,-219.5596C790.7588,-206.6734 922.5851,-187.9525 1011.0111,-175.395"/>
<polygon fill="#000000" stroke="#000000" points="1011.628,-178.8426 1021.0365,-173.9713 1010.6437,-171.9121 1011.628,-178.8426"/>
</g>
<!-- pacco.manager.abstracts.remote&#45;&gt;pacco.manager.abstracts.package_registry -->
<g id="edge29" class="edge">
<title>pacco.manager.abstracts.remote-&gt;pacco.manager.abstracts.package_registry</title>
<path fill="none" stroke="#000000" d="M605.7173,-647.9555C576.8927,-609.7585 509.6129,-520.6025 476.0722,-476.1559"/>
<polygon fill="#000000" stroke="#000000" points="478.8444,-474.019 470.027,-468.1451 473.2569,-478.2356 478.8444,-474.019"/>
</g>
<!-- pacco.manager.abstracts.registry_factory -->
<g id="node17" class="node">
<title>pacco.manager.abstracts.registry_factory</title>
<ellipse fill="#d3d3d3" stroke="#000000" cx="235.3342" cy="-594" rx="169.4811" ry="18"/>
<text text-anchor="middle" x="235.3342" y="-589.8" font-family="Times,serif" font-size="14.00" fill="#000000">pacco.manager.abstracts.registry_factory</text>
</g>
<!-- pacco.manager.abstracts.remote&#45;&gt;pacco.manager.abstracts.registry_factory -->
<g id="edge30" class="edge">
<title>pacco.manager.abstracts.remote-&gt;pacco.manager.abstracts.registry_factory</title>
<path fill="none" stroke="#000000" d="M541.1632,-651.3429C479.736,-639.8253 393.9801,-623.7461 328.9035,-611.5442"/>
<polygon fill="#000000" stroke="#000000" points="329.5247,-608.0998 319.051,-609.6969 328.2346,-614.9799 329.5247,-608.0998"/>
</g>
<!-- pacco.manager.abstracts.package_registry&#45;&gt;pacco.manager.abstracts.package_binary -->
<g id="edge25" class="edge">
<title>pacco.manager.abstracts.package_registry-&gt;pacco.manager.abstracts.package_binary</title>
<path fill="none" stroke="#000000" d="M505.785,-432.6793C523.7068,-424.161 542.6421,-412.1709 555.3342,-396 586.1361,-356.7556 594.9673,-297.4173 597.4408,-262.5007"/>
<polygon fill="#000000" stroke="#000000" points="600.9602,-262.2632 598.0403,-252.0787 593.9717,-261.8612 600.9602,-262.2632"/>
</g>
<!-- pacco.manager.abstracts.binary_factory -->
<g id="node14" class="node">
<title>pacco.manager.abstracts.binary_factory</title>
<ellipse fill="#d3d3d3" stroke="#000000" cx="381.3342" cy="-378" rx="164.8301" ry="18"/>
<text text-anchor="middle" x="381.3342" y="-373.8" font-family="Times,serif" font-size="14.00" fill="#000000">pacco.manager.abstracts.binary_factory</text>
</g>
<!-- pacco.manager.abstracts.package_registry&#45;&gt;pacco.manager.abstracts.binary_factory -->
<g id="edge24" class="edge">
<title>pacco.manager.abstracts.package_registry-&gt;pacco.manager.abstracts.binary_factory</title>
<path fill="none" stroke="#000000" d="M437.4085,-431.8314C428.2793,-423.0673 417.1853,-412.4171 407.2824,-402.9103"/>
<polygon fill="#000000" stroke="#000000" points="409.6318,-400.3139 399.994,-395.9134 404.784,-405.3636 409.6318,-400.3139"/>
</g>
<!-- pacco.manager.file_based.utils.clients.local -->
<g id="node21" class="node">
<title>pacco.manager.file_based.utils.clients.local</title>
<ellipse fill="#ee8262" stroke="#ee8262" cx="1105.3342" cy="-90" rx="179.3299" ry="18"/>
<text text-anchor="middle" x="1105.3342" y="-85.8" font-family="Times,serif" font-size="14.00" fill="#000000">pacco.manager.file_based.utils.clients.local</text>
</g>
<!-- pacco.manager.utils.cache&#45;&gt;pacco.manager.file_based.utils.clients.local -->
<g id="edge46" class="edge">
<title>pacco.manager.utils.cache-&gt;pacco.manager.file_based.utils.clients.local</title>
<path fill="none" stroke="#ee8262" d="M1105.3342,-143.8314C1105.3342,-136.131 1105.3342,-126.9743 1105.3342,-118.4166"/>
<polygon fill="#ee8262" stroke="#ee8262" points="1108.8343,-118.4132 1105.3342,-108.4133 1101.8343,-118.4133 1108.8343,-118.4132"/>
</g>
<!-- pacco.cli.commands.registry&#45;&gt;pacco.cli.commands.utils.command_abstract -->
<g id="edge12" class="edge">
<title>pacco.cli.commands.registry-&gt;pacco.cli.commands.utils.command_abstract</title>
<path fill="none" stroke="#98f5ff" d="M519.4046,-1010.5542C564.0615,-999.6178 624.2593,-984.8755 671.997,-973.1846"/>
<polygon fill="#98f5ff" stroke="#98f5ff" points="673.104,-976.517 681.9845,-970.7387 671.4389,-969.7179 673.104,-976.517"/>
</g>
<!-- pacco.cli.commands.registry&#45;&gt;pacco.manager.abstracts.remote -->
<g id="edge13" class="edge">
<title>pacco.cli.commands.registry-&gt;pacco.manager.abstracts.remote</title>
<path fill="none" stroke="#98f5ff" d="M464.8172,-1007.81C476.5588,-980.9218 496.3342,-928.7039 496.3342,-882 496.3342,-882 496.3342,-882 496.3342,-810 496.3342,-757.3416 544.4773,-714.2094 580.5244,-689.2947"/>
<polygon fill="#98f5ff" stroke="#98f5ff" points="582.5735,-692.1347 588.9297,-683.6582 578.6749,-686.3209 582.5735,-692.1347"/>
</g>
<!-- pacco.cli.commands.registry&#45;&gt;pacco.manager.abstracts.package_registry -->
<g id="edge14" class="edge">
<title>pacco.cli.commands.registry-&gt;pacco.manager.abstracts.package_registry</title>
<path fill="none" stroke="#98f5ff" d="M456.3342,-1007.8146C456.3342,-980.4983 456.3342,-927.25 456.3342,-882 456.3342,-882 456.3342,-882 456.3342,-594 456.3342,-553.876 456.3342,-507.4631 456.3342,-478.4177"/>
<polygon fill="#98f5ff" stroke="#98f5ff" points="459.8343,-478.1853 456.3342,-468.1854 452.8343,-478.1854 459.8343,-478.1853"/>
</g>
<!-- pacco.cli.commands.remote&#45;&gt;pacco.cli.commands.utils.command_abstract -->
<g id="edge15" class="edge">
<title>pacco.cli.commands.remote-&gt;pacco.cli.commands.utils.command_abstract</title>
<path fill="none" stroke="#98f5ff" d="M724.1662,-1007.8314C728.0328,-999.8771 732.6548,-990.369 736.931,-981.5723"/>
<polygon fill="#98f5ff" stroke="#98f5ff" points="740.1591,-982.9371 741.3833,-972.4133 733.8635,-979.8768 740.1591,-982.9371"/>
</g>
<!-- pacco.cli.commands.remote&#45;&gt;pacco.manager.abstracts.remote -->
<g id="edge16" class="edge">
<title>pacco.cli.commands.remote-&gt;pacco.manager.abstracts.remote</title>
<path fill="none" stroke="#98f5ff" d="M651.1842,-1010.8245C613.3616,-1000.6289 570.4121,-986.4572 557.3342,-972 529.7795,-941.5394 536.3342,-923.0745 536.3342,-882 536.3342,-882 536.3342,-882 536.3342,-810 536.3342,-763.5145 569.2024,-718.51 593.5718,-691.5311"/>
<polygon fill="#98f5ff" stroke="#98f5ff" points="596.2509,-693.7898 600.5002,-684.0844 591.126,-689.0215 596.2509,-693.7898"/>
</g>
<!-- pacco.manager.remote_manager&#45;&gt;pacco.manager.abstracts.remote -->
<g id="edge18" class="edge">
<title>pacco.manager.remote_manager-&gt;pacco.manager.abstracts.remote</title>
<path fill="none" stroke="#000000" d="M680.7271,-866.4901C643.9142,-856.7274 604.1329,-843.1339 593.3342,-828 564.5998,-787.7303 586.8187,-727.541 604.0814,-692.9928"/>
<polygon fill="#000000" stroke="#000000" points="607.2666,-694.4535 608.7724,-683.9662 601.0553,-691.2255 607.2666,-694.4535"/>
</g>
<!-- pacco.manager.abstracts.remote_factory -->
<g id="node13" class="node">
<title>pacco.manager.abstracts.remote_factory</title>
<ellipse fill="#d3d3d3" stroke="#000000" cx="769.3342" cy="-810" rx="166.614" ry="18"/>
<text text-anchor="middle" x="769.3342" y="-805.8" font-family="Times,serif" font-size="14.00" fill="#000000">pacco.manager.abstracts.remote_factory</text>
</g>
<!-- pacco.manager.remote_manager&#45;&gt;pacco.manager.abstracts.remote_factory -->
<g id="edge19" class="edge">
<title>pacco.manager.remote_manager-&gt;pacco.manager.abstracts.remote_factory</title>
<path fill="none" stroke="#000000" d="M755.1287,-863.8314C757.1831,-856.0463 759.6302,-846.7729 761.9097,-838.1347"/>
<polygon fill="#000000" stroke="#000000" points="765.3077,-838.9753 764.4751,-828.4133 758.5394,-837.1892 765.3077,-838.9753"/>
</g>
<!-- pacco.manager.abstracts.remote_factory&#45;&gt;pacco.manager.abstracts.remote -->
<g id="edge32" class="edge">
<title>pacco.manager.abstracts.remote_factory-&gt;pacco.manager.abstracts.remote</title>
<path fill="none" stroke="#000000" d="M709.1519,-793.1598C688.5281,-784.8415 666.7806,-772.8618 651.3342,-756 635.6448,-738.873 627.5445,-713.5465 623.4255,-694.1194"/>
<polygon fill="#000000" stroke="#000000" points="626.8144,-693.2024 621.5238,-684.0231 619.9353,-694.4982 626.8144,-693.2024"/>
</g>
<!-- pacco.manager.file_based.remote -->
<g id="node19" class="node">
<title>pacco.manager.file_based.remote</title>
<ellipse fill="#d3d3d3" stroke="#000000" cx="834.3342" cy="-738" rx="140.5723" ry="18"/>
<text text-anchor="middle" x="834.3342" y="-733.8" font-family="Times,serif" font-size="14.00" fill="#000000">pacco.manager.file_based.remote</text>
</g>
<!-- pacco.manager.abstracts.remote_factory&#45;&gt;pacco.manager.file_based.remote -->
<g id="edge31" class="edge">
<title>pacco.manager.abstracts.remote_factory-&gt;pacco.manager.file_based.remote</title>
<path fill="none" stroke="#000000" d="M785.7364,-791.8314C793.4933,-783.2392 802.8868,-772.834 811.3397,-763.4708"/>
<polygon fill="#000000" stroke="#000000" points="814.0592,-765.6815 818.1624,-755.9134 808.8633,-760.9907 814.0592,-765.6815"/>
</g>
<!-- pacco.manager.abstracts.binary_factory&#45;&gt;pacco.manager.abstracts.package_binary -->
<g id="edge21" class="edge">
<title>pacco.manager.abstracts.binary_factory-&gt;pacco.manager.abstracts.package_binary</title>
<path fill="none" stroke="#000000" d="M462.3032,-362.2115C489.4109,-354.067 518.5102,-341.9292 541.3342,-324 562.2075,-307.6032 577.5913,-281.3054 587.0805,-261.361"/>
<polygon fill="#000000" stroke="#000000" points="590.3146,-262.704 591.2635,-252.1517 583.9412,-259.8091 590.3146,-262.704"/>
</g>
<!-- pacco.manager.file_based.package_binary -->
<g id="node15" class="node">
<title>pacco.manager.file_based.package_binary</title>
<ellipse fill="#d3d3d3" stroke="#000000" cx="357.3342" cy="-306" rx="174.7101" ry="18"/>
<text text-anchor="middle" x="357.3342" y="-301.8" font-family="Times,serif" font-size="14.00" fill="#000000">pacco.manager.file_based.package_binary</text>
</g>
<!-- pacco.manager.abstracts.binary_factory&#45;&gt;pacco.manager.file_based.package_binary -->
<g id="edge20" class="edge">
<title>pacco.manager.abstracts.binary_factory-&gt;pacco.manager.file_based.package_binary</title>
<path fill="none" stroke="#000000" d="M375.278,-359.8314C372.683,-352.0463 369.5918,-342.7729 366.7124,-334.1347"/>
<polygon fill="#000000" stroke="#000000" points="369.9547,-332.7933 363.4719,-324.4133 363.3139,-335.0069 369.9547,-332.7933"/>
</g>
<!-- pacco.manager.file_based.utils.clients.abstract -->
<g id="node16" class="node">
<title>pacco.manager.file_based.utils.clients.abstract</title>
<ellipse fill="#ee8262" stroke="#ee8262" cx="225.3342" cy="-18" rx="190.344" ry="18"/>
<text text-anchor="middle" x="225.3342" y="-13.8" font-family="Times,serif" font-size="14.00" fill="#000000">pacco.manager.file_based.utils.clients.abstract</text>
</g>
<!-- pacco.manager.abstracts.binary_factory&#45;&gt;pacco.manager.file_based.utils.clients.abstract -->
<g id="edge22" class="edge">
<title>pacco.manager.abstracts.binary_factory-&gt;pacco.manager.file_based.utils.clients.abstract</title>
<path fill="none" stroke="#ee8262" d="M284.317,-363.3916C247.9599,-355.2519 207.269,-342.8125 173.3342,-324 122.4667,-295.8005 78.3342,-292.1611 78.3342,-234 78.3342,-234 78.3342,-234 78.3342,-162 78.3342,-116.6667 94.4295,-104.2056 126.3342,-72 139.0041,-59.2106 155.345,-48.6419 171.0851,-40.3486"/>
<polygon fill="#ee8262" stroke="#ee8262" points="172.8962,-43.3552 180.2509,-35.729 169.7457,-37.1043 172.8962,-43.3552"/>
</g>
<!-- pacco.manager.file_based.package_binary&#45;&gt;pacco.manager.abstracts.package_binary -->
<g id="edge34" class="edge">
<title>pacco.manager.file_based.package_binary-&gt;pacco.manager.abstracts.package_binary</title>
<path fill="none" stroke="#000000" d="M414.4478,-288.937C449.586,-278.4393 494.7768,-264.9383 531.5654,-253.9475"/>
<polygon fill="#000000" stroke="#000000" points="532.6338,-257.2813 541.2134,-251.0651 530.6299,-250.5742 532.6338,-257.2813"/>
</g>
<!-- pacco.manager.file_based.package_binary&#45;&gt;pacco.manager.file_based.utils.clients.abstract -->
<g id="edge33" class="edge">
<title>pacco.manager.file_based.package_binary-&gt;pacco.manager.file_based.utils.clients.abstract</title>
<path fill="none" stroke="#ee8262" d="M323.3269,-288.1623C271.3452,-258.7162 174.0835,-194.4825 135.3342,-108 128.7919,-93.3987 127.451,-85.9232 135.3342,-72 142.7746,-58.8589 154.8297,-48.5669 167.732,-40.6564"/>
<polygon fill="#ee8262" stroke="#ee8262" points="169.7717,-43.5239 176.7534,-35.5548 166.3259,-37.4307 169.7717,-43.5239"/>
</g>
<!-- pacco.manager.abstracts.registry_factory&#45;&gt;pacco.manager.abstracts.package_registry -->
<g id="edge27" class="edge">
<title>pacco.manager.abstracts.registry_factory-&gt;pacco.manager.abstracts.package_registry</title>
<path fill="none" stroke="#000000" d="M319.1587,-578.3213C346.7024,-570.2078 376.1659,-558.0612 399.3342,-540 420.2681,-523.6806 435.6446,-497.3735 445.1156,-477.4059"/>
<polygon fill="#000000" stroke="#000000" points="448.3545,-478.738 449.2891,-468.1844 441.9772,-475.8517 448.3545,-478.738"/>
</g>
<!-- pacco.manager.abstracts.registry_factory&#45;&gt;pacco.manager.file_based.utils.clients.abstract -->
<g id="edge28" class="edge">
<title>pacco.manager.abstracts.registry_factory-&gt;pacco.manager.file_based.utils.clients.abstract</title>
<path fill="none" stroke="#ee8262" d="M136.1643,-579.3381C88.3197,-570.2752 37.7678,-557.0894 21.3342,-540 -7.0026,-510.5324 2.3342,-490.8816 2.3342,-450 2.3342,-450 2.3342,-450 2.3342,-162 2.3342,-116.2416 16.8439,-100.8836 52.3342,-72 72.0467,-55.9571 96.5436,-44.662 120.843,-36.7158"/>
<polygon fill="#ee8262" stroke="#ee8262" points="121.981,-40.0274 130.4976,-33.7252 119.9097,-33.3409 121.981,-40.0274"/>
</g>
<!-- pacco.manager.file_based.package_registry -->
<g id="node18" class="node">
<title>pacco.manager.file_based.package_registry</title>
<ellipse fill="#d3d3d3" stroke="#000000" cx="210.3342" cy="-522" rx="179.8613" ry="18"/>
<text text-anchor="middle" x="210.3342" y="-517.8" font-family="Times,serif" font-size="14.00" fill="#000000">pacco.manager.file_based.package_registry</text>
</g>
<!-- pacco.manager.abstracts.registry_factory&#45;&gt;pacco.manager.file_based.package_registry -->
<g id="edge26" class="edge">
<title>pacco.manager.abstracts.registry_factory-&gt;pacco.manager.file_based.package_registry</title>
<path fill="none" stroke="#000000" d="M229.0256,-575.8314C226.3225,-568.0463 223.1026,-558.7729 220.1032,-550.1347"/>
<polygon fill="#000000" stroke="#000000" points="223.3142,-548.7119 216.7277,-540.4133 216.7015,-551.0081 223.3142,-548.7119"/>
</g>
<!-- pacco.manager.file_based.package_registry&#45;&gt;pacco.manager.abstracts.package_registry -->
<g id="edge36" class="edge">
<title>pacco.manager.file_based.package_registry-&gt;pacco.manager.abstracts.package_registry</title>
<path fill="none" stroke="#000000" d="M268.6328,-504.937C304.4999,-494.4393 350.6283,-480.9383 388.1801,-469.9475"/>
<polygon fill="#000000" stroke="#000000" points="389.4141,-473.2333 398.0283,-467.0651 387.4478,-466.5151 389.4141,-473.2333"/>
</g>
<!-- pacco.manager.file_based.package_registry&#45;&gt;pacco.manager.file_based.utils.clients.abstract -->
<g id="edge35" class="edge">
<title>pacco.manager.file_based.package_registry-&gt;pacco.manager.file_based.utils.clients.abstract</title>
<path fill="none" stroke="#ee8262" d="M161.1631,-504.5419C110.9557,-483.1929 40.3342,-441.8204 40.3342,-378 40.3342,-378 40.3342,-378 40.3342,-162 40.3342,-116.2416 55.9963,-102.2446 90.3342,-72 106.8507,-57.4524 127.7767,-46.5502 148.1927,-38.4979"/>
<polygon fill="#ee8262" stroke="#ee8262" points="149.6996,-41.6709 157.8347,-34.8833 147.2424,-35.1163 149.6996,-41.6709"/>
</g>
<!-- pacco.manager.file_based.remote&#45;&gt;pacco.manager.abstracts.remote -->
<g id="edge39" class="edge">
<title>pacco.manager.file_based.remote-&gt;pacco.manager.abstracts.remote</title>
<path fill="none" stroke="#000000" d="M783.9262,-721.1192C752.5219,-710.6024 711.9601,-697.0189 678.9613,-685.9682"/>
<polygon fill="#000000" stroke="#000000" points="680.0202,-682.6318 669.4263,-682.775 677.7973,-689.2695 680.0202,-682.6318"/>
</g>
<!-- pacco.manager.file_based.remote&#45;&gt;pacco.manager.file_based.utils.clients.abstract -->
<g id="edge38" class="edge">
<title>pacco.manager.file_based.remote-&gt;pacco.manager.file_based.utils.clients.abstract</title>
<path fill="none" stroke="#ee8262" d="M896.83,-721.7793C955.8341,-702.2496 1035.3342,-663.1123 1035.3342,-594 1035.3342,-594 1035.3342,-594 1035.3342,-450 1035.3342,-246.5978 1433.4828,-219.4138 1293.3342,-72 1263.8874,-41.0267 724.1264,-26.6713 423.4976,-21.0535"/>
<polygon fill="#ee8262" stroke="#ee8262" points="423.4107,-17.5513 413.3476,-20.8654 423.281,-24.5501 423.4107,-17.5513"/>
</g>
<!-- pacco.manager.file_based.utils.clients.client_factory -->
<g id="node20" class="node">
<title>pacco.manager.file_based.utils.clients.client_factory</title>
<ellipse fill="#ee8262" stroke="#ee8262" cx="742.3342" cy="-162" rx="214.0413" ry="18"/>
<text text-anchor="middle" x="742.3342" y="-157.8" font-family="Times,serif" font-size="14.00" fill="#000000">pacco.manager.file_based.utils.clients.client_factory</text>
</g>
<!-- pacco.manager.file_based.remote&#45;&gt;pacco.manager.file_based.utils.clients.client_factory -->
<g id="edge37" class="edge">
<title>pacco.manager.file_based.remote-&gt;pacco.manager.file_based.utils.clients.client_factory</title>
<path fill="none" stroke="#ee8262" d="M853.3514,-720.1396C896.349,-677.7193 997.3342,-565.7672 997.3342,-450 997.3342,-450 997.3342,-450 997.3342,-306 997.3342,-235.3714 922.2451,-198.9925 853.5608,-180.49"/>
<polygon fill="#ee8262" stroke="#ee8262" points="854.0407,-176.9992 843.4832,-177.8879 852.2906,-183.7769 854.0407,-176.9992"/>
</g>
<!-- pacco.manager.file_based.utils.clients.client_factory&#45;&gt;pacco.manager.file_based.utils.clients.local -->
<g id="edge40" class="edge">
<title>pacco.manager.file_based.utils.clients.client_factory-&gt;pacco.manager.file_based.utils.clients.local</title>
<path fill="none" stroke="#ee8262" d="M826.0695,-145.3913C882.3805,-134.2222 956.5872,-119.5035 1014.3522,-108.046"/>
<polygon fill="#ee8262" stroke="#ee8262" points="1015.0778,-111.4704 1024.2058,-106.0916 1013.7159,-104.6041 1015.0778,-111.4704"/>
</g>
<!-- pacco.manager.file_based.utils.clients.nexus -->
<g id="node22" class="node">
<title>pacco.manager.file_based.utils.clients.nexus</title>
<ellipse fill="#ee8262" stroke="#ee8262" cx="725.3342" cy="-90" rx="182.8468" ry="18"/>
<text text-anchor="middle" x="725.3342" y="-85.8" font-family="Times,serif" font-size="14.00" fill="#000000">pacco.manager.file_based.utils.clients.nexus</text>
</g>
<!-- pacco.manager.file_based.utils.clients.client_factory&#45;&gt;pacco.manager.file_based.utils.clients.nexus -->
<g id="edge41" class="edge">
<title>pacco.manager.file_based.utils.clients.client_factory-&gt;pacco.manager.file_based.utils.clients.nexus</title>
<path fill="none" stroke="#ee8262" d="M738.0444,-143.8314C736.2262,-136.131 734.0642,-126.9743 732.0437,-118.4166"/>
<polygon fill="#ee8262" stroke="#ee8262" points="735.3861,-117.3414 729.6818,-108.4133 728.5734,-118.95 735.3861,-117.3414"/>
</g>
<!-- pacco.manager.file_based.utils.clients.webdav -->
<g id="node23" class="node">
<title>pacco.manager.file_based.utils.clients.webdav</title>
<ellipse fill="#ee8262" stroke="#ee8262" cx="334.3342" cy="-90" rx="190.3517" ry="18"/>
<text text-anchor="middle" x="334.3342" y="-85.8" font-family="Times,serif" font-size="14.00" fill="#000000">pacco.manager.file_based.utils.clients.webdav</text>
</g>
<!-- pacco.manager.file_based.utils.clients.client_factory&#45;&gt;pacco.manager.file_based.utils.clients.webdav -->
<g id="edge42" class="edge">
<title>pacco.manager.file_based.utils.clients.client_factory-&gt;pacco.manager.file_based.utils.clients.webdav</title>
<path fill="none" stroke="#ee8262" d="M650.0076,-145.7071C585.8364,-134.3827 500.3556,-119.2979 434.5312,-107.6818"/>
<polygon fill="#ee8262" stroke="#ee8262" points="435.011,-104.2125 424.5549,-105.9213 433.7944,-111.106 435.011,-104.2125"/>
</g>
<!-- pacco.manager.file_based.utils.clients.local&#45;&gt;pacco.manager.file_based.utils.clients.abstract -->
<g id="edge43" class="edge">
<title>pacco.manager.file_based.utils.clients.local-&gt;pacco.manager.file_based.utils.clients.abstract</title>
<path fill="none" stroke="#ee8262" d="M976.9268,-77.4023C956.9814,-75.5332 936.6066,-73.6744 917.3342,-72 735.4685,-56.199 526.5223,-40.1892 386.2303,-29.7509"/>
<polygon fill="#ee8262" stroke="#ee8262" points="386.4812,-26.26 376.2492,-29.009 385.9623,-33.2407 386.4812,-26.26"/>
</g>
<!-- pacco.manager.file_based.utils.clients.nexus&#45;&gt;pacco.manager.file_based.utils.clients.abstract -->
<g id="edge44" class="edge">
<title>pacco.manager.file_based.utils.clients.nexus-&gt;pacco.manager.file_based.utils.clients.abstract</title>
<path fill="none" stroke="#ee8262" d="M622.0371,-75.1252C539.9293,-63.3017 425.151,-46.7736 340.1685,-34.5361"/>
<polygon fill="#ee8262" stroke="#ee8262" points="340.6149,-31.0644 330.2181,-33.1033 339.6171,-37.9929 340.6149,-31.0644"/>
</g>
<!-- pacco.manager.file_based.utils.clients.webdav&#45;&gt;pacco.manager.file_based.utils.clients.abstract -->
<g id="edge45" class="edge">
<title>pacco.manager.file_based.utils.clients.webdav-&gt;pacco.manager.file_based.utils.clients.abstract</title>
<path fill="none" stroke="#ee8262" d="M307.1101,-72.0171C293.1942,-62.825 276.0818,-51.5213 261.1138,-41.6342"/>
<polygon fill="#ee8262" stroke="#ee8262" points="262.8621,-38.5945 252.589,-36.0032 259.0039,-44.4353 262.8621,-38.5945"/>
</g>
</g>
</svg>